<svg width="25" height="24" viewBox="0 0 25 24" fill="none" xmlns="http://www.w3.org/2000/svg">
<path d="M15.236 5H8.96302C6.83274 5 5.09961 6.73321 5.09961 8.86349V15.1365C5.09961 17.2669 6.83274 19 8.96302 19H15.236C17.3665 19 19.0996 17.2668 19.0996 15.1365V8.86349C19.0997 6.73321 17.3665 5 15.236 5ZM17.8575 15.1365C17.8575 16.582 16.6816 17.7579 15.2361 17.7579H8.96302C7.51766 17.7579 6.34176 16.582 6.34176 15.1365V8.86349C6.34176 7.41813 7.51766 6.24215 8.96302 6.24215H15.236C16.6815 6.24215 17.8575 7.41813 17.8575 8.86349L17.8575 15.1365Z" fill="#9E9E9E"/>
<path d="M12.0994 8.39276C10.1102 8.39276 8.49194 10.011 8.49194 12.0002C8.49194 13.9893 10.1102 15.6075 12.0994 15.6075C14.0886 15.6075 15.7068 13.9893 15.7068 12.0002C15.7068 10.011 14.0886 8.39276 12.0994 8.39276ZM12.0994 14.3653C10.7952 14.3653 9.73409 13.3043 9.73409 12.0001C9.73409 10.6959 10.7951 9.63483 12.0994 9.63483C13.4036 9.63483 14.4647 10.6959 14.4647 12.0001C14.4647 13.3043 13.4036 14.3653 12.0994 14.3653Z" fill="#9E9E9E"/>
<path d="M15.8585 7.33917C15.6192 7.33917 15.3841 7.43606 15.2151 7.60582C15.0453 7.77475 14.9476 8.00993 14.9476 8.25008C14.9476 8.48948 15.0453 8.72458 15.2151 8.89434C15.384 9.06327 15.6192 9.16099 15.8585 9.16099C16.0987 9.16099 16.333 9.06327 16.5028 8.89434C16.6726 8.72458 16.7694 8.4894 16.7694 8.25008C16.7694 8.00993 16.6726 7.77475 16.5028 7.60582C16.3339 7.43606 16.0987 7.33917 15.8585 7.33917Z" fill="#9E9E9E"/>
</svg>
