<svg width="25" height="24" viewBox="0 0 25 24" fill="none" xmlns="http://www.w3.org/2000/svg">
<path d="M18.6939 8.38528C18.4336 7.45679 17.9187 6.72177 17.1633 6.20184C16.21 5.54509 15.1135 5.31218 14.1666 5.1709C12.8563 4.97553 11.6694 4.94816 10.5392 5.08626C9.479 5.21608 8.68097 5.42354 7.95231 5.75828C6.5249 6.41376 5.66832 7.47525 5.40677 8.9122C5.27949 9.60968 5.19422 10.2403 5.14458 10.8417C5.03003 12.2322 5.13376 13.463 5.46214 14.6034C5.7816 15.7152 6.34035 16.51 7.17019 17.0318C7.38211 17.1648 7.65194 17.2609 7.91413 17.3539C8.04522 17.4003 8.17123 17.4461 8.28132 17.4945V19.7409C8.28132 20.0349 8.51933 20.2729 8.81334 20.2729C8.95207 20.2729 9.08508 20.2189 9.18435 20.1221L11.2571 18.1061C11.3474 18.003 11.3474 18.003 11.4403 18.0011C12.1486 17.9871 12.8722 17.9597 13.5913 17.9209C14.4625 17.8731 15.4718 17.7891 16.4226 17.3927C17.2925 17.0293 17.9276 16.4527 18.3088 15.6795C18.7066 14.8726 18.9433 13.9982 19.0318 13.0073C19.187 11.2649 19.0763 9.75287 18.6939 8.38528ZM15.0849 15.0164C14.8768 15.3569 14.565 15.5923 14.1984 15.7451C13.9305 15.8571 13.6569 15.8335 13.3928 15.7215C11.1756 14.7835 9.43763 13.3045 8.28832 11.1796C8.05159 10.7418 7.88676 10.2652 7.69776 9.80251C7.65894 9.70705 7.66212 9.59568 7.64494 9.49195C7.66148 8.7442 8.23486 8.32355 8.81398 8.19627C9.03544 8.14727 9.23144 8.22555 9.39563 8.38273C9.85001 8.81675 10.2096 9.31949 10.48 9.88333C10.5984 10.1309 10.5449 10.3498 10.3432 10.5337C10.3018 10.5719 10.2579 10.6075 10.2127 10.6413C9.75264 10.9875 9.68519 11.249 9.93019 11.7702C10.3477 12.6567 11.0407 13.2517 11.9374 13.6208C12.1735 13.7182 12.3962 13.6698 12.5769 13.4783C12.6011 13.4528 12.6285 13.428 12.6463 13.3987C13.0001 12.8088 13.5124 12.8673 13.9859 13.204C14.2971 13.4248 14.5987 13.6577 14.9067 13.883C15.3738 14.2273 15.37 14.5506 15.0849 15.0164ZM12.4248 8.90902C12.3058 8.90902 12.1862 8.91857 12.0691 8.9383C11.8705 8.97202 11.6834 8.83775 11.6503 8.6392C11.6173 8.44128 11.7509 8.25355 11.9494 8.22045C12.1054 8.195 12.2657 8.18163 12.4248 8.18163C13.9999 8.18163 15.2816 9.46331 15.2816 11.0384C15.2816 11.1981 15.2682 11.3585 15.2421 11.5144C15.2122 11.6919 15.0582 11.8179 14.8838 11.8179C14.8641 11.8179 14.8437 11.8167 14.8234 11.8128C14.6254 11.7791 14.4918 11.592 14.5249 11.3941C14.5446 11.2783 14.5542 11.1586 14.5542 11.039C14.5542 9.86424 13.599 8.90902 12.4248 8.90902ZM14.0088 11.2726C14.0088 11.473 13.8459 11.6359 13.6454 11.6359C13.4449 11.6359 13.282 11.473 13.282 11.2726C13.282 10.6712 12.7927 10.1818 12.1913 10.1818C11.9908 10.1818 11.8279 10.0189 11.8279 9.81842C11.8279 9.61796 11.9908 9.45504 12.1913 9.45504C13.1929 9.4544 14.0088 10.2702 14.0088 11.2726ZM16.4563 11.7161C16.4181 11.8854 16.2686 11.9993 16.1019 11.9993C16.0751 11.9993 16.0478 11.9961 16.021 11.9904C15.825 11.9459 15.7022 11.7511 15.7468 11.5557C15.7996 11.3235 15.8263 11.0835 15.8263 10.843C15.8263 9.07512 14.3881 7.63625 12.6196 7.63625C12.3784 7.63625 12.1391 7.66298 11.9068 7.7158C11.7121 7.76098 11.5161 7.63753 11.4722 7.44152C11.4276 7.24551 11.5504 7.05078 11.7464 7.00687C12.0315 6.94132 12.3255 6.90886 12.6208 6.90886C14.7896 6.90886 16.5543 8.67356 16.5543 10.8424C16.5543 11.1376 16.5212 11.4317 16.4563 11.7161Z" fill="#9E9E9E"/>
</svg>
