<svg width="319" height="42" viewBox="0 0 319 42" fill="none" xmlns="http://www.w3.org/2000/svg">
<path d="M22.0196 2C28.8281 2 33.8332 4.24552 37.1378 7.68589C40.452 11.1361 42.1388 15.8743 42.1388 21C42.1388 26.1257 40.452 30.8639 37.1378 34.3141C33.8332 37.7545 28.8281 40 22.0196 40C15.2111 40 10.2061 37.7545 6.90138 34.3141C3.58725 30.8639 1.90039 26.1257 1.90039 21C1.90039 15.8743 3.58725 11.1361 6.90138 7.68589C10.2061 4.24552 15.2111 2 22.0196 2ZM22.0196 9.31507C18.3785 9.31507 15.4902 10.5377 13.5191 12.6789C11.5593 14.8077 10.6008 17.741 10.6008 21C10.6008 24.259 11.5593 27.1923 13.5191 29.3211C15.4902 31.4623 18.3785 32.6849 22.0196 32.6849C25.6607 32.6849 28.549 31.4623 30.5202 29.3211C32.4799 27.1923 33.4384 24.259 33.4384 21C33.4384 17.741 32.4799 14.8077 30.5202 12.6789C28.549 10.5377 25.6607 9.31507 22.0196 9.31507Z" stroke="white" stroke-width="2"/>
<path d="M35.3852 31.3618C33.9835 31.3618 32.7383 30.6069 32.7383 28.8595C32.7383 27.1426 33.9835 26.3877 35.3852 26.3877C36.8119 26.3877 38.0322 27.1426 38.0322 28.8595C38.0322 30.6069 36.8119 31.3618 35.3852 31.3618Z" fill="white"/>
<path d="M49.1144 13.3164C53.0817 13.3164 55.472 14.7289 55.472 17.7852C55.472 19.7274 54.5146 21.0181 52.775 21.6208C54.7211 22.1749 56.1979 23.5386 56.1979 25.9861C56.1979 29.9983 52.2557 30.9846 48.8015 30.9846H40.917V13.3164H49.1144ZM48.9579 23.636H45.6915V27.3194H48.9579C50.4097 27.3194 51.3734 26.8628 51.3734 25.4747C51.3734 24.0927 50.4097 23.636 48.9579 23.636ZM48.6764 16.9755H45.7165V20.2327L48.6764 20.257C49.9466 20.257 50.6725 19.6239 50.6725 18.6132C50.6725 17.6026 49.9466 16.9755 48.6764 16.9755Z" fill="white"/>
<path d="M56.6172 30.9848L63.7508 13.3105H68.9383L76.0719 30.9848H71.141L70.1022 28.2086H62.5806L61.5419 30.9848H56.6172ZM64.0136 24.4217H68.6817L66.8107 19.3197C66.6543 18.8935 66.4979 18.4612 66.3414 17.5297C66.185 18.4612 66.0285 18.8935 65.8721 19.3197L64.0136 24.4217Z" fill="white"/>
<path d="M78.0752 30.9846V13.3164H82.6182L89.7267 23.4656C89.6517 22.6315 89.6204 21.5234 89.6204 20.5371V13.3164H94.4199V30.9907H89.8769L82.7684 20.8659C82.8434 21.7 82.8747 22.808 82.8747 23.77V30.9907H78.0752V30.9846Z" fill="white"/>
<path d="M98.1113 30.9846V13.3164H102.911V20.0074H105.195L109.319 13.3164H114.638L108.931 21.9252L114.9 30.9907H109.581L105.17 24.1718H102.911V30.9907H98.1113V30.9846Z" fill="white"/>
<path fill-rule="evenodd" clip-rule="evenodd" d="M166.322 14.4152C166.322 17.4028 163.761 19.8303 160.61 19.8303C157.458 19.8303 154.9 17.4052 154.9 14.4152C154.9 11.4214 157.458 9 160.61 9C163.761 9 166.322 11.4202 166.322 14.4152ZM180.204 14.4152C180.204 11.4214 177.647 9 174.496 9C171.345 9 168.79 11.4214 168.79 14.4152C168.79 17.4028 171.345 19.8303 174.496 19.8303C177.648 19.8291 180.204 17.404 180.204 14.4152ZM166.322 27.5848C166.322 24.5948 163.761 22.1734 160.61 22.1734C157.458 22.1734 154.9 24.5948 154.9 27.5848C154.9 30.5749 157.458 33 160.61 33C163.761 33 166.322 30.5761 166.322 27.5848ZM180.204 27.5848C180.204 24.5948 177.647 22.1734 174.496 22.1734C171.345 22.1734 168.79 24.5948 168.79 27.5848C168.79 30.5749 171.345 33 174.496 33C177.648 33 180.204 30.5761 180.204 27.5848ZM258.453 9.43359H249.788L249.785 32.5488H258.643C259.9 32.5488 261.045 32.3944 262.082 32.0881C263.117 31.7793 264.013 31.3344 264.76 30.7487C265.504 30.1642 266.087 29.4571 266.496 28.6262C266.907 27.7979 267.114 26.8481 267.114 25.7832C267.114 25.0676 267.005 24.412 266.791 23.8177C266.572 23.2197 266.275 22.7038 265.899 22.2614C265.521 21.8239 265.088 21.4538 264.599 21.1573C264.114 20.857 263.603 20.6487 263.063 20.5237V20.4649C263.492 20.2786 263.908 20.0421 264.307 19.7554C264.707 19.4711 265.059 19.1329 265.362 18.7444C265.665 18.3523 265.902 17.9074 266.074 17.405C266.248 16.9038 266.336 16.3364 266.336 15.6992C266.336 14.7593 266.167 13.904 265.83 13.1356C265.495 12.366 264.999 11.7068 264.337 11.1529C263.678 10.6014 262.856 10.1762 261.874 9.87965C260.891 9.5831 259.749 9.43359 258.453 9.43359ZM260.417 18.2003C259.715 18.6831 258.776 18.9245 257.608 18.9245H254.65V13.3635H258.029C259.001 13.3635 259.82 13.5768 260.481 14.0057C261.143 14.437 261.472 15.1318 261.472 16.0962C261.472 17.0178 261.121 17.7175 260.417 18.2003ZM261.111 27.7745C260.484 28.3382 259.401 28.6189 257.866 28.6189L254.65 28.6213V22.6829H258.256C258.971 22.6829 259.564 22.7675 260.043 22.9427C260.515 23.1167 260.906 23.3483 261.211 23.6351C261.511 23.9206 261.73 24.2428 261.859 24.6044C261.988 24.9647 262.054 25.3274 262.054 25.6987C262.054 26.5185 261.739 27.2109 261.111 27.7745ZM279.377 30.4808L279.307 30.5037C278.53 31.4643 277.628 32.1176 276.601 32.468C275.576 32.8148 274.575 32.9876 273.606 32.9876C272.958 32.9876 272.288 32.9067 271.594 32.7437C270.902 32.5771 270.273 32.3087 269.699 31.9263C269.129 31.5465 268.659 31.0514 268.305 30.4351C267.951 29.8174 267.771 29.0626 267.771 28.1582C267.771 27.7281 267.837 27.2525 267.965 26.7293C268.094 26.2048 268.397 25.7086 268.874 25.2368C269.345 24.7637 270.06 24.3483 271.011 23.9893C271.959 23.6315 273.246 23.4023 274.865 23.3006L279.176 23.0531V22.3141C279.176 21.3693 278.889 20.6672 278.314 20.2064C277.746 19.7432 276.939 19.5152 275.901 19.5152C274.927 19.5152 274.172 19.7272 273.633 20.15C273.092 20.574 272.799 21.1451 272.754 21.8692H268.284C268.324 21.2529 268.483 20.6194 268.751 19.9748C269.023 19.3302 269.46 18.731 270.068 18.1881C270.67 17.6465 271.459 17.198 272.43 16.8487C273.403 16.5031 274.626 16.3242 276.092 16.3242C277.133 16.3242 278.107 16.4235 279.013 16.6159C279.923 16.8107 280.721 17.1134 281.417 17.5215C282.107 17.9344 282.654 18.4589 283.056 19.1047C283.458 19.7468 283.658 20.5213 283.658 21.4245V30.5772C283.658 30.9889 283.68 31.3479 283.72 31.6568C283.763 31.9668 283.815 32.2633 283.879 32.5513H279.377V30.4808ZM275.288 26.0137L279.181 25.6779L279.177 27.1227C279.177 27.5957 279.043 27.9988 278.786 28.3358C278.528 28.6728 278.205 28.951 277.813 29.168C277.425 29.3823 277.007 29.5405 276.562 29.6434C276.122 29.7464 275.716 29.7965 275.349 29.7965C274.958 29.7965 274.59 29.7659 274.232 29.7059C273.874 29.6434 273.567 29.5405 273.308 29.3971C273.049 29.2525 272.839 29.0638 272.678 28.8273C272.515 28.592 272.435 28.3004 272.435 27.9523C272.435 27.3776 272.64 26.9352 273.054 26.6301C273.463 26.3212 274.207 26.1166 275.288 26.0137ZM296.22 22.9345C296.22 22.3585 296.14 21.877 295.977 21.4873C295.815 21.1012 295.594 20.7863 295.312 20.5511C295.033 20.3158 294.717 20.1442 294.372 20.0413C294.028 19.9395 293.668 19.8881 293.303 19.8881C292.355 19.8881 291.609 20.2324 291.068 20.9199C290.528 21.6073 290.255 22.4896 290.255 23.5766V32.5479H285.597V16.74H290.059V18.8134H290.138C290.829 17.8514 291.583 17.1934 292.407 16.8466C293.224 16.501 294.11 16.3221 295.061 16.3221C296.054 16.3221 296.919 16.4667 297.65 16.7559C298.38 17.039 298.992 17.4372 299.48 17.9384C299.963 18.4396 300.318 19.0242 300.547 19.6908C300.772 20.3561 300.887 21.0682 300.887 21.8267V32.5516H296.223V22.9357L296.22 22.9345ZM307.363 24.8029L307.432 24.8078L312.362 32.5488H318.1L312.298 23.874L317.871 16.7518L312.46 16.7396L307.432 23.6657L307.363 23.6669V9.43359H302.706V32.5488H307.363V24.8029ZM190.077 9.43359H185.216V32.5488H190.077V9.43359ZM204.999 30.3406L205.073 30.3284L205.074 32.5488H209.533V9.43359H204.872V18.9098H204.809C204.03 17.927 203.226 17.2494 202.391 16.8793C201.558 16.5104 200.602 16.3242 199.522 16.3242C198.31 16.3242 197.229 16.5521 196.281 17.0018C195.33 17.4516 194.522 18.0618 193.866 18.8314C193.204 19.5985 192.696 20.4796 192.339 21.4747C191.983 22.466 191.805 23.5174 191.805 24.6252C191.805 25.7281 191.992 26.7881 192.371 27.7905C192.749 28.7953 193.278 29.6825 193.962 30.4497C194.64 31.2192 195.458 31.8344 196.407 32.294C197.36 32.7547 198.418 32.9851 199.586 32.9851C200.666 32.9851 201.672 32.7804 202.602 32.3699C203.528 31.9594 204.328 31.2854 204.999 30.3406ZM204.771 22.9672C204.947 23.5187 205.033 24.0934 205.033 24.6853C205.033 25.3433 204.939 25.956 204.758 26.5295C204.571 27.103 204.301 27.6043 203.947 28.0344C203.59 28.4657 203.156 28.8039 202.651 29.0477C202.142 29.2941 201.553 29.4179 200.885 29.4179C200.191 29.4179 199.586 29.2905 199.067 29.0343C198.547 28.7782 198.109 28.4375 197.755 28.0061C197.397 27.5773 197.13 27.0809 196.942 26.5173C196.76 25.9536 196.667 25.3654 196.667 24.7502C196.667 24.1608 196.755 23.5799 196.927 23.0162C197.099 22.4525 197.361 21.9563 197.705 21.5261C198.052 21.0948 198.477 20.748 198.984 20.4796C199.493 20.2125 200.082 20.0813 200.753 20.0813C201.488 20.0813 202.119 20.2088 202.648 20.4649C203.178 20.7197 203.623 21.0629 203.978 21.493C204.333 21.9231 204.598 22.4146 204.771 22.9672ZM216.163 27.2795C215.981 26.8383 215.864 26.38 215.822 25.9046L228.012 25.9021V24.6755C228.012 23.4071 227.802 22.2552 227.381 21.2173C226.957 20.1855 226.375 19.3069 225.63 18.5765C224.886 17.8511 223.988 17.2923 222.941 16.9063C221.89 16.5141 220.742 16.3193 219.488 16.3193C218.233 16.3193 217.083 16.5178 216.035 16.9063C214.986 17.2947 214.09 17.8535 213.344 18.5814C212.598 19.3105 212.015 20.1867 211.594 21.2246C211.173 22.2565 210.963 23.412 210.963 24.6816C210.963 25.9524 211.173 27.0945 211.594 28.1103C212.015 29.125 212.598 29.9963 213.344 30.7217C214.09 31.4508 214.986 32.0085 216.035 32.3981C217.083 32.789 218.233 32.9827 219.488 32.9827C221.453 32.9827 223.157 32.5696 224.592 31.7388C226.031 30.908 227.029 29.6851 227.591 28.0675L223.053 27.7293C222.727 28.3456 222.268 28.8125 221.675 29.1311C221.08 29.4472 220.426 29.6066 219.715 29.6066C219.084 29.6066 218.54 29.4999 218.073 29.2831C217.611 29.0674 217.222 28.7868 216.908 28.451C216.596 28.1103 216.348 27.7181 216.163 27.2795ZM223.022 21.8962C223.192 22.2957 223.301 22.6928 223.342 23.0799H215.822C215.888 22.6315 216.01 22.1976 216.195 21.7884C216.379 21.3791 216.631 21.0213 216.958 20.7136C217.282 20.4073 217.67 20.1635 218.123 19.9784C218.577 19.7934 219.106 19.7002 219.714 19.7002C220.272 19.7002 220.769 19.8044 221.201 20.009C221.635 20.2113 222.001 20.4759 222.304 20.8056C222.608 21.134 222.846 21.4979 223.022 21.8962ZM240.604 30.5036L240.675 30.4803L240.677 32.5488H245.178C245.114 32.2609 245.06 31.9643 245.019 31.6543C244.979 31.3454 244.958 30.9864 244.958 30.5747V21.422C244.958 20.5188 244.757 19.7443 244.355 19.1022C243.953 18.4564 243.408 17.9319 242.714 17.519C242.021 17.1109 241.223 16.8082 240.312 16.6134C239.405 16.421 238.433 16.3217 237.394 16.3217C235.924 16.3217 234.704 16.5006 233.732 16.8462C232.758 17.1955 231.971 17.644 231.365 18.1856C230.758 18.7285 230.322 19.3277 230.052 19.9723C229.782 20.6169 229.624 21.2504 229.582 21.8668H234.052C234.098 21.1426 234.388 20.5715 234.929 20.1475C235.469 19.7247 236.225 19.5127 237.198 19.5127C238.235 19.5127 239.04 19.7419 239.611 20.2064C240.184 20.6671 240.469 21.3693 240.469 22.3141V23.053L236.161 23.3005C234.541 23.4023 233.255 23.6314 232.308 23.9892C231.355 24.3483 230.643 24.7637 230.166 25.2367C229.69 25.7085 229.389 26.2048 229.26 26.7292C229.132 27.2525 229.066 27.728 229.066 28.1581C229.066 29.0625 229.246 29.8174 229.6 30.4349C229.956 31.0513 230.422 31.5465 230.994 31.9263C231.568 32.3087 232.198 32.5771 232.89 32.7436C233.581 32.9066 234.253 32.9876 234.899 32.9876C235.873 32.9876 236.869 32.8148 237.895 32.468C238.921 32.1175 239.823 31.4643 240.604 30.5036ZM236.584 26.0136L240.473 25.6778L240.472 27.1226C240.472 27.5956 240.341 27.9988 240.082 28.3358C239.823 28.6728 239.5 28.951 239.107 29.1679C238.72 29.3823 238.302 29.5404 237.862 29.6434C237.42 29.7463 237.014 29.7965 236.646 29.7965C236.259 29.7965 235.886 29.7659 235.529 29.7059C235.17 29.6434 234.861 29.5404 234.604 29.3971C234.345 29.2524 234.134 29.0637 233.972 28.8272C233.81 28.592 233.729 28.3003 233.729 27.9523C233.729 27.3776 233.935 26.9352 234.346 26.6301C234.755 26.3212 235.504 26.1166 236.584 26.0136Z" fill="#404040"/>
</svg>
