<svg width="32" height="32" viewBox="0 0 32 32" fill="none" xmlns="http://www.w3.org/2000/svg">
<path d="M21.7047 16.663C21.715 15.8634 21.928 15.0795 22.3238 14.3841C22.7196 13.6887 23.2854 13.1044 23.9685 12.6856C23.5345 12.0676 22.962 11.559 22.2965 11.2002C21.631 10.8414 20.8907 10.6423 20.1345 10.6187C18.5214 10.4499 16.9576 11.5813 16.1356 11.5813C15.2977 11.5813 14.032 10.6355 12.6692 10.6635C11.7877 10.6919 10.9285 10.9475 10.1755 11.4054C9.42254 11.8634 8.80134 12.508 8.37245 13.2766C6.51463 16.4841 7.9004 21.1981 9.68004 23.7908C10.5704 25.0604 11.611 26.4785 12.9727 26.4282C14.3051 26.3731 14.8027 25.581 16.4111 25.581C18.0045 25.581 18.4714 26.4282 19.8606 26.3963C21.2904 26.3731 22.1912 25.121 23.0504 23.8394C23.6901 22.9348 24.1824 21.935 24.509 20.8771C23.6783 20.5267 22.9695 19.9403 22.4708 19.1909C21.9721 18.4415 21.7057 17.5624 21.7047 16.663Z" fill="#404040"/>
<path d="M19.0806 8.91406C19.8602 7.98084 20.2442 6.78135 20.1512 5.57031C18.9602 5.69505 17.8601 6.26268 17.07 7.16009C16.6837 7.5985 16.3878 8.10853 16.1993 8.66103C16.0108 9.21354 15.9333 9.79767 15.9713 10.38C16.567 10.3862 17.1564 10.2574 17.6949 10.0035C18.2335 9.74954 18.7073 9.37705 19.0806 8.91406Z" fill="#404040"/>
</svg>
