<svg width="32" height="32" viewBox="0 0 32 32" fill="none" xmlns="http://www.w3.org/2000/svg">
<path d="M7.1 7.38623C7.1 6.92991 7.21914 6.59217 7.4131 6.3726L16.9854 15.9278V16.0604L7.42023 25.6142C7.22035 25.405 7.1 25.0685 7.1 24.6097V7.38623Z" fill="#404040" stroke="white" stroke-width="0.2"/>
<path d="M20.3175 12.7941L20.3175 12.7941L20.3202 12.7957L24.132 14.9596L24.1323 14.9598C24.6595 15.2563 24.8996 15.6355 24.8996 15.9944C24.8996 16.3534 24.6593 16.7345 24.1319 17.035C24.1319 17.035 24.1319 17.035 24.1318 17.035L20.3202 19.1988L20.3202 19.1988L20.3175 19.2004L20.3146 19.2022L17.1771 16.0685V15.9261L20.3146 12.7923L20.3175 12.7941Z" fill="#404040" stroke="white" stroke-width="0.2"/>
<path d="M7.49839 25.7058L17.0772 16.1384L20.2061 19.2635L8.92683 25.6723C8.92668 25.6724 8.92654 25.6725 8.92639 25.6725C8.32752 26.0055 7.81815 25.9792 7.49839 25.7058Z" fill="#404040" stroke="white" stroke-width="0.2"/>
<path d="M8.92609 6.33104L20.206 12.7306L17.0772 15.8557L7.49819 6.29765C7.81712 6.02282 8.32826 5.98983 8.92587 6.33091L8.92609 6.33104Z" fill="#404040" stroke="white" stroke-width="0.2"/>
<path opacity="0.2" fill-rule="evenodd" clip-rule="evenodd" d="M20.2294 19.2158L8.97274 25.6375C8.34404 26.0007 7.78304 25.9754 7.4213 25.6452L7.36133 25.7054L7.4213 25.7579C7.78304 26.0861 8.34404 26.1133 8.97274 25.7501L20.3068 19.2857L20.2294 19.2158Z" fill="white"/>
<path opacity="0.12" fill-rule="evenodd" clip-rule="evenodd" d="M24.0906 17.0091L20.2197 19.2157L20.2894 19.2856L24.0809 17.1217C24.6245 16.8109 24.8914 16.403 24.8914 15.9971C24.8585 16.37 24.5819 16.7235 24.0906 17.0091Z" fill="white"/>
</svg>
