<svg width="32" height="32" viewBox="0 0 32 32" fill="none" xmlns="http://www.w3.org/2000/svg">
<path fill-rule="evenodd" clip-rule="evenodd" d="M20.3693 6H11.6286C7.50769 6 6 7.50737 6 11.6274V20.3726C6 24.4926 7.50769 26 11.6286 26H20.3693C24.4902 26 26 24.4926 26 20.3726V11.6274C26.0042 7.50737 24.4965 6 20.3693 6ZM9.49111 16.8333H10.0511V19.5956H9.49111V18.4733H8.22667V19.5956H7.66667V16.8333H8.22667V17.9444H9.49111V16.8333ZM12.6467 18.4133C12.6467 18.8578 12.4244 19.1022 12.02 19.1022C11.6156 19.1022 11.3889 18.8578 11.3889 18.3889V16.8333H10.8289V18.4111C10.8289 19.1867 11.26 19.6311 12.0111 19.6311C12.7622 19.6311 13.2067 19.1867 13.2067 18.3867V16.8333H12.6467V18.4133ZM18.4911 16.8333H18.0311L17.4089 18.7333L16.7978 16.8333H16.2022L17.1644 19.5956H17.6289L18.2533 17.7822L18.88 19.5956H19.3489L20.3111 16.8333H19.7289L19.1178 18.7311L18.4911 16.8333ZM21.3133 18.4044H22.3333V17.9044H21.3133V17.34H22.7933V16.8333H20.7622V19.5889H22.8467V19.0911H21.3133V18.4044ZM23.5133 19.5889H24.0667V16.8333H23.5133V19.5889ZM14.3133 19.0178L14.0622 19.5911H13.4911L14.6978 16.8333H15.1911L16.4022 19.5911H15.8244L15.5867 19.02L14.3133 19.0178ZM14.5222 18.52H15.3644L14.9422 17.5333L14.5222 18.52ZM13.0545 12.5231C13.8357 13.1481 14.8951 13.4994 16 13.5C17.1049 13.4994 18.1643 13.1481 18.9455 12.5231C19.7268 11.8981 20.166 11.0505 20.1667 10.1667H19.579C19.579 10.926 19.2019 11.6543 18.5307 12.1912C17.8595 12.7282 16.9492 13.0298 16 13.0298C15.0508 13.0298 14.1405 12.7282 13.4693 12.1912C12.7981 11.6543 12.421 10.926 12.421 10.1667H11.8333C11.834 11.0505 12.2732 11.8981 13.0545 12.5231Z" fill="#404040"/>
</svg>
