<svg width="20" height="20" viewBox="0 0 20 20" fill="none" xmlns="http://www.w3.org/2000/svg">
<path d="M10 10.8335C10.4602 10.8335 10.8333 10.4604 10.8333 10.0002C10.8333 9.53993 10.4602 9.16683 10 9.16683C9.53977 9.16683 9.16667 9.53993 9.16667 10.0002C9.16667 10.4604 9.53977 10.8335 10 10.8335Z" stroke="#98A2B3" stroke-width="1.66667" stroke-linecap="round" stroke-linejoin="round"/>
<path d="M10 5.00016C10.4602 5.00016 10.8333 4.62707 10.8333 4.16683C10.8333 3.70659 10.4602 3.3335 10 3.3335C9.53977 3.3335 9.16667 3.70659 9.16667 4.16683C9.16667 4.62707 9.53977 5.00016 10 5.00016Z" stroke="#98A2B3" stroke-width="1.66667" stroke-linecap="round" stroke-linejoin="round"/>
<path d="M10 16.6668C10.4602 16.6668 10.8333 16.2937 10.8333 15.8335C10.8333 15.3733 10.4602 15.0002 10 15.0002C9.53977 15.0002 9.16667 15.3733 9.16667 15.8335C9.16667 16.2937 9.53977 16.6668 10 16.6668Z" stroke="#98A2B3" stroke-width="1.66667" stroke-linecap="round" stroke-linejoin="round"/>
</svg>
